<svg height="496pt" viewBox="-7 0 496 496.00024" width="496pt" xmlns="http://www.w3.org/2000/svg"><path d="m303.425781 14.558594c-18.152343-4.382813-36.765625-6.585938-55.4375-6.558594-121.792969.007812-224.269531 91.234375-238.371093 212.207031-14.105469 120.96875 64.632812 233.324219 183.152343 261.351563 118.523438 28.027344 239.246094-37.164063 280.816407-151.636719-56.851563 50.140625-138.644532 60.269531-206.007813 25.503906-67.367187-34.761719-106.503906-107.292969-98.574219-182.683593 7.929688-75.390626 61.300782-138.195313 134.421875-158.183594zm0 0" fill="#ffda44"/><path d="m478.082031 323.304688c-3.027343-2.054688-7.0625-1.796876-9.800781.632812-54.382812 47.949219-132.609375 57.625-197.035156 24.371094-64.429688-33.25-101.855469-102.621094-94.277344-174.726563 7.582031-72.105469 58.621094-132.175781 128.554688-151.300781 3.523437-.957031 5.953124-4.179688 5.90625-7.828125-.050782-3.652344-2.566407-6.808594-6.113282-7.667969-18.773437-4.535156-38.019531-6.8124998-57.328125-6.785156-125.851562.0078125-231.746093 94.277344-246.320312 219.277344-14.574219 125.003906 66.789062 241.105468 189.261719 270.066406 122.472656 28.960938 247.222656-38.402344 290.175781-156.695312 1.25-3.441407.003906-7.289063-3.023438-9.34375zm-230.09375 156.695312c-85.792969-.015625-164.574219-47.371094-204.832031-123.132812-40.257812-75.757813-35.421875-167.546876 12.574219-238.660157 47.992187-71.109375 131.3125-109.925781 216.632812-100.925781-65.34375 29.621094-108.722656 93.203125-112.464843 164.851562-3.742188 71.648438 32.773437 139.40625 94.675781 175.675782 61.898437 36.269531 138.859375 35 199.53125-3.289063-39.964844 76.960938-119.402344 125.316407-206.117188 125.480469zm0 0" fill="#231f20"/></svg>